<svg width="1024" height="753" viewBox="0 0 1024 753" fill="none" xmlns="http://www.w3.org/2000/svg">
<g clip-path="url(#clip0_175_1901)">
<rect width="1024" height="753" fill="#121214"/>
<g opacity="0.2" filter="url(#filter0_f_175_1901)">
<ellipse cx="512.5" cy="103" rx="670.5" ry="350" fill="#B3A659"/>
</g>
<path d="M33.0349 339C34.5302 339 35.6622 339.63 36.4308 340.891C37.2134 342.138 37.6047 343.953 37.6047 346.336C37.6047 348.719 37.2134 350.541 36.4308 351.802C35.6622 353.063 34.5302 353.693 33.0349 353.693C31.5536 353.693 30.4216 353.063 29.639 351.802C28.8564 350.541 28.4651 348.719 28.4651 346.336C28.4651 343.967 28.8564 342.152 29.639 340.891C30.4216 339.63 31.5536 339 33.0349 339ZM29.9534 346.336C29.9534 348.026 30.1072 349.35 30.4146 350.306L35.0683 341.099C34.5791 340.448 33.9013 340.122 33.0349 340.122C32.0706 340.122 31.316 340.635 30.771 341.66C30.2259 342.672 29.9534 344.23 29.9534 346.336ZM33.0349 352.55C34.0131 352.55 34.7748 352.044 35.3198 351.033C35.8648 350.008 36.1373 348.442 36.1373 346.336C36.1373 344.549 35.9627 343.163 35.6133 342.18L30.9596 351.469C31.4627 352.19 32.1545 352.55 33.0349 352.55Z" fill="url(#paint0_linear_175_1901)" fill-opacity="0.6"/>
<path d="M34.2926 376.135H37.3741V377.236H29.3874V376.135H32.9511V364.455L29.5551 366.471L28.9682 365.536L33.1607 362.959H34.2926V376.135Z" fill="url(#paint1_linear_175_1901)" fill-opacity="0.6"/>
<path d="M33.0349 386.502C34.5302 386.502 35.6622 387.133 36.4308 388.393C37.2134 389.64 37.6047 391.455 37.6047 393.838C37.6047 396.221 37.2134 398.043 36.4308 399.304C35.6622 400.565 34.5302 401.195 33.0349 401.195C31.5536 401.195 30.4216 400.565 29.639 399.304C28.8564 398.043 28.4651 396.221 28.4651 393.838C28.4651 391.469 28.8564 389.654 29.639 388.393C30.4216 387.133 31.5536 386.502 33.0349 386.502ZM29.9534 393.838C29.9534 395.529 30.1072 396.852 30.4146 397.808L35.0683 388.601C34.5791 387.95 33.9013 387.624 33.0349 387.624C32.0706 387.624 31.316 388.137 30.771 389.162C30.2259 390.174 29.9534 391.732 29.9534 393.838ZM33.0349 400.052C34.0131 400.052 34.7748 399.546 35.3198 398.535C35.8648 397.51 36.1373 395.944 36.1373 393.838C36.1373 392.051 35.9627 390.665 35.6133 389.682L30.9596 398.971C31.4627 399.692 32.1545 400.052 33.0349 400.052Z" fill="url(#paint2_linear_175_1901)" fill-opacity="0.6"/>
<path d="M34.2926 423.637H37.3741V424.738H29.3874V423.637H32.9511V411.957L29.5551 413.973L28.9682 413.038L33.1607 410.461H34.2926V423.637Z" fill="url(#paint3_linear_175_1901)" fill-opacity="0.6"/>
<path d="M34.2926 447.388H37.3741V448.489H29.3874V447.388H32.9511V435.708L29.5551 437.724L28.9682 436.789L33.1607 434.212H34.2926V447.388Z" fill="url(#paint4_linear_175_1901)" fill-opacity="0.6"/>
<path d="M33.0349 457.755C34.5302 457.755 35.6622 458.386 36.4308 459.646C37.2134 460.893 37.6047 462.708 37.6047 465.091C37.6047 467.474 37.2134 469.296 36.4308 470.557C35.6622 471.818 34.5302 472.448 33.0349 472.448C31.5536 472.448 30.4216 471.818 29.639 470.557C28.8564 469.296 28.4651 467.474 28.4651 465.091C28.4651 462.722 28.8564 460.907 29.639 459.646C30.4216 458.386 31.5536 457.755 33.0349 457.755ZM29.9534 465.091C29.9534 466.782 30.1072 468.105 30.4146 469.061L35.0683 459.854C34.5791 459.203 33.9013 458.878 33.0349 458.878C32.0706 458.878 31.316 459.39 30.771 460.415C30.2259 461.427 29.9534 462.985 29.9534 465.091ZM33.0349 471.305C34.0131 471.305 34.7748 470.8 35.3198 469.788C35.8648 468.763 36.1373 467.197 36.1373 465.091C36.1373 463.304 35.9627 461.919 35.6133 460.935L30.9596 470.225C31.4627 470.945 32.1545 471.305 33.0349 471.305Z" fill="url(#paint5_linear_175_1901)" fill-opacity="0.6"/>
<path d="M34.2926 494.89H37.3741V495.992H29.3874V494.89H32.9511V483.21L29.5551 485.226L28.9682 484.291L33.1607 481.714H34.2926V494.89Z" fill="url(#paint6_linear_175_1901)" fill-opacity="0.6"/>
<path d="M33.0349 505.257C34.5302 505.257 35.6622 505.888 36.4308 507.149C37.2134 508.396 37.6047 510.211 37.6047 512.594C37.6047 514.977 37.2134 516.798 36.4308 518.059C35.6622 519.32 34.5302 519.95 33.0349 519.95C31.5536 519.95 30.4216 519.32 29.639 518.059C28.8564 516.798 28.4651 514.977 28.4651 512.594C28.4651 510.224 28.8564 508.409 29.639 507.149C30.4216 505.888 31.5536 505.257 33.0349 505.257ZM29.9534 512.594C29.9534 514.284 30.1072 515.607 30.4146 516.563L35.0683 507.356C34.5791 506.705 33.9013 506.38 33.0349 506.38C32.0706 506.38 31.316 506.892 30.771 507.918C30.2259 508.929 29.9534 510.488 29.9534 512.594ZM33.0349 518.807C34.0131 518.807 34.7748 518.302 35.3198 517.29C35.8648 516.265 36.1373 514.699 36.1373 512.594C36.1373 510.806 35.9627 509.421 35.6133 508.437L30.9596 517.727C31.4627 518.447 32.1545 518.807 33.0349 518.807Z" fill="url(#paint7_linear_175_1901)" fill-opacity="0.6"/>
<path d="M33.0349 529.008C34.5302 529.008 35.6622 529.639 36.4308 530.9C37.2134 532.147 37.6047 533.962 37.6047 536.345C37.6047 538.728 37.2134 540.549 36.4308 541.81C35.6622 543.071 34.5302 543.701 33.0349 543.701C31.5536 543.701 30.4216 543.071 29.639 541.81C28.8564 540.549 28.4651 538.728 28.4651 536.345C28.4651 533.975 28.8564 532.16 29.639 530.9C30.4216 529.639 31.5536 529.008 33.0349 529.008ZM29.9534 536.345C29.9534 538.035 30.1072 539.358 30.4146 540.314L35.0683 531.107C34.5791 530.456 33.9013 530.131 33.0349 530.131C32.0706 530.131 31.316 530.643 30.771 531.669C30.2259 532.68 29.9534 534.239 29.9534 536.345ZM33.0349 542.558C34.0131 542.558 34.7748 542.053 35.3198 541.041C35.8648 540.016 36.1373 538.451 36.1373 536.345C36.1373 534.557 35.9627 533.172 35.6133 532.188L30.9596 541.478C31.4627 542.198 32.1545 542.558 33.0349 542.558Z" fill="url(#paint8_linear_175_1901)" fill-opacity="0.6"/>
<path d="M34.2926 566.143H37.3741V567.245H29.3874V566.143H32.9511V554.464L29.5551 556.48L28.9682 555.544L33.1607 552.967H34.2926V566.143Z" fill="url(#paint9_linear_175_1901)" fill-opacity="0.6"/>
<path d="M33.0349 576.511C34.5302 576.511 35.6622 577.141 36.4308 578.402C37.2134 579.649 37.6047 581.464 37.6047 583.847C37.6047 586.23 37.2134 588.052 36.4308 589.312C35.6622 590.573 34.5302 591.204 33.0349 591.204C31.5536 591.204 30.4216 590.573 29.639 589.312C28.8564 588.052 28.4651 586.23 28.4651 583.847C28.4651 581.478 28.8564 579.663 29.639 578.402C30.4216 577.141 31.5536 576.511 33.0349 576.511ZM29.9534 583.847C29.9534 585.537 30.1072 586.86 30.4146 587.816L35.0683 578.61C34.5791 577.958 33.9013 577.633 33.0349 577.633C32.0706 577.633 31.316 578.145 30.771 579.171C30.2259 580.182 29.9534 581.741 29.9534 583.847ZM33.0349 590.061C34.0131 590.061 34.7748 589.555 35.3198 588.543C35.8648 587.518 36.1373 585.953 36.1373 583.847C36.1373 582.059 35.9627 580.674 35.6133 579.69L30.9596 588.98C31.4627 589.7 32.1545 590.061 33.0349 590.061Z" fill="url(#paint10_linear_175_1901)" fill-opacity="0.6"/>
<path d="M34.2926 613.645H37.3741V614.747H29.3874V613.645H32.9511V601.966L29.5551 603.982L28.9682 603.046L33.1607 600.469H34.2926V613.645Z" fill="url(#paint11_linear_175_1901)" fill-opacity="0.6"/>
<path d="M34.2926 637.396H37.3741V638.498H29.3874V637.396H32.9511V625.717L29.5551 627.733L28.9682 626.798L33.1607 624.221H34.2926V637.396Z" fill="url(#paint12_linear_175_1901)" fill-opacity="0.6"/>
<path d="M71.9651 386.502C73.4604 386.502 74.5924 387.133 75.361 388.393C76.1436 389.64 76.5349 391.455 76.5349 393.838C76.5349 396.221 76.1436 398.043 75.361 399.304C74.5924 400.565 73.4604 401.195 71.9651 401.195C70.4838 401.195 69.3518 400.565 68.5692 399.304C67.7866 398.043 67.3953 396.221 67.3953 393.838C67.3953 391.469 67.7866 389.654 68.5692 388.393C69.3518 387.133 70.4838 386.502 71.9651 386.502ZM68.8836 393.838C68.8836 395.529 69.0374 396.852 69.3448 397.808L73.9985 388.601C73.5093 387.95 72.8315 387.624 71.9651 387.624C71.0008 387.624 70.2462 388.137 69.7012 389.162C69.1561 390.174 68.8836 391.732 68.8836 393.838ZM71.9651 400.052C72.9433 400.052 73.705 399.546 74.25 398.535C74.795 397.51 75.0675 395.944 75.0675 393.838C75.0675 392.051 74.8928 390.665 74.5435 389.682L69.8898 398.971C70.3929 399.692 71.0847 400.052 71.9651 400.052Z" fill="url(#paint13_linear_175_1901)" fill-opacity="0.6"/>
<path d="M73.2228 423.637H76.3043V424.738H68.3176V423.637H71.8812V411.957L68.4853 413.973L67.8984 413.038L72.0909 410.461H73.2228V423.637Z" fill="url(#paint14_linear_175_1901)" fill-opacity="0.6"/>
<path d="M71.9651 434.004C73.4604 434.004 74.5924 434.635 75.361 435.895C76.1436 437.142 76.5349 438.957 76.5349 441.34C76.5349 443.723 76.1436 445.545 75.361 446.806C74.5924 448.067 73.4604 448.697 71.9651 448.697C70.4838 448.697 69.3518 448.067 68.5692 446.806C67.7866 445.545 67.3953 443.723 67.3953 441.34C67.3953 438.971 67.7866 437.156 68.5692 435.895C69.3518 434.635 70.4838 434.004 71.9651 434.004ZM68.8836 441.34C68.8836 443.031 69.0374 444.354 69.3448 445.31L73.9985 436.103C73.5093 435.452 72.8315 435.126 71.9651 435.126C71.0008 435.126 70.2462 435.639 69.7012 436.664C69.1561 437.676 68.8836 439.234 68.8836 441.34ZM71.9651 447.554C72.9433 447.554 73.705 447.049 74.25 446.037C74.795 445.012 75.0675 443.446 75.0675 441.34C75.0675 439.553 74.8928 438.168 74.5435 437.184L69.8898 446.474C70.3929 447.194 71.0847 447.554 71.9651 447.554Z" fill="url(#paint15_linear_175_1901)" fill-opacity="0.6"/>
<path d="M71.9651 457.755C73.4604 457.755 74.5924 458.386 75.361 459.646C76.1436 460.893 76.5349 462.708 76.5349 465.091C76.5349 467.474 76.1436 469.296 75.361 470.557C74.5924 471.818 73.4604 472.448 71.9651 472.448C70.4838 472.448 69.3518 471.818 68.5692 470.557C67.7866 469.296 67.3953 467.474 67.3953 465.091C67.3953 462.722 67.7866 460.907 68.5692 459.646C69.3518 458.386 70.4838 457.755 71.9651 457.755ZM68.8836 465.091C68.8836 466.782 69.0374 468.105 69.3448 469.061L73.9985 459.854C73.5093 459.203 72.8315 458.878 71.9651 458.878C71.0008 458.878 70.2462 459.39 69.7012 460.415C69.1561 461.427 68.8836 462.985 68.8836 465.091ZM71.9651 471.305C72.9433 471.305 73.705 470.8 74.25 469.788C74.795 468.763 75.0675 467.197 75.0675 465.091C75.0675 463.304 74.8928 461.919 74.5435 460.935L69.8898 470.225C70.3929 470.945 71.0847 471.305 71.9651 471.305Z" fill="url(#paint16_linear_175_1901)" fill-opacity="0.6"/>
<path d="M73.2228 494.89H76.3043V495.992H68.3176V494.89H71.8812V483.21L68.4853 485.226L67.8984 484.291L72.0909 481.714H73.2228V494.89Z" fill="url(#paint17_linear_175_1901)" fill-opacity="0.6"/>
<path d="M71.9651 505.257C73.4604 505.257 74.5924 505.888 75.361 507.149C76.1436 508.396 76.5349 510.211 76.5349 512.594C76.5349 514.977 76.1436 516.798 75.361 518.059C74.5924 519.32 73.4604 519.95 71.9651 519.95C70.4838 519.95 69.3518 519.32 68.5692 518.059C67.7866 516.798 67.3953 514.977 67.3953 512.594C67.3953 510.224 67.7866 508.409 68.5692 507.149C69.3518 505.888 70.4838 505.257 71.9651 505.257ZM68.8836 512.594C68.8836 514.284 69.0374 515.607 69.3448 516.563L73.9985 507.356C73.5093 506.705 72.8315 506.38 71.9651 506.38C71.0008 506.38 70.2462 506.892 69.7012 507.918C69.1561 508.929 68.8836 510.488 68.8836 512.594ZM71.9651 518.807C72.9433 518.807 73.705 518.302 74.25 517.29C74.795 516.265 75.0675 514.699 75.0675 512.594C75.0675 510.806 74.8928 509.421 74.5435 508.437L69.8898 517.727C70.3929 518.447 71.0847 518.807 71.9651 518.807Z" fill="url(#paint18_linear_175_1901)" fill-opacity="0.6"/>
<path d="M73.2228 542.392H76.3043V543.494H68.3176V542.392H71.8812V530.713L68.4853 532.728L67.8984 531.793L72.0909 529.216H73.2228V542.392Z" fill="url(#paint19_linear_175_1901)" fill-opacity="0.6"/>
<path d="M71.9651 552.76C73.4604 552.76 74.5924 553.39 75.361 554.651C76.1436 555.898 76.5349 557.713 76.5349 560.096C76.5349 562.479 76.1436 564.301 75.361 565.561C74.5924 566.822 73.4604 567.453 71.9651 567.453C70.4838 567.453 69.3518 566.822 68.5692 565.561C67.7866 564.301 67.3953 562.479 67.3953 560.096C67.3953 557.726 67.7866 555.911 68.5692 554.651C69.3518 553.39 70.4838 552.76 71.9651 552.76ZM68.8836 560.096C68.8836 561.786 69.0374 563.109 69.3448 564.065L73.9985 554.859C73.5093 554.207 72.8315 553.882 71.9651 553.882C71.0008 553.882 70.2462 554.394 69.7012 555.42C69.1561 556.431 68.8836 557.99 68.8836 560.096ZM71.9651 566.31C72.9433 566.31 73.705 565.804 74.25 564.792C74.795 563.767 75.0675 562.202 75.0675 560.096C75.0675 558.308 74.8928 556.923 74.5435 555.939L69.8898 565.229C70.3929 565.949 71.0847 566.31 71.9651 566.31Z" fill="url(#paint20_linear_175_1901)" fill-opacity="0.6"/>
<path d="M71.9651 576.511C73.4604 576.511 74.5924 577.141 75.361 578.402C76.1436 579.649 76.5349 581.464 76.5349 583.847C76.5349 586.23 76.1436 588.052 75.361 589.312C74.5924 590.573 73.4604 591.204 71.9651 591.204C70.4838 591.204 69.3518 590.573 68.5692 589.312C67.7866 588.052 67.3953 586.23 67.3953 583.847C67.3953 581.478 67.7866 579.663 68.5692 578.402C69.3518 577.141 70.4838 576.511 71.9651 576.511ZM68.8836 583.847C68.8836 585.537 69.0374 586.86 69.3448 587.816L73.9985 578.61C73.5093 577.958 72.8315 577.633 71.9651 577.633C71.0008 577.633 70.2462 578.145 69.7012 579.171C69.1561 580.182 68.8836 581.741 68.8836 583.847ZM71.9651 590.061C72.9433 590.061 73.705 589.555 74.25 588.543C74.795 587.518 75.0675 585.953 75.0675 583.847C75.0675 582.059 74.8928 580.674 74.5435 579.69L69.8898 588.98C70.3929 589.7 71.0847 590.061 71.9651 590.061Z" fill="url(#paint21_linear_175_1901)" fill-opacity="0.6"/>
<path d="M73.2228 613.645H76.3043V614.747H68.3176V613.645H71.8812V601.966L68.4853 603.982L67.8984 603.046L72.0909 600.469H73.2228V613.645Z" fill="url(#paint22_linear_175_1901)" fill-opacity="0.6"/>
<path d="M71.9651 624.013C73.4604 624.013 74.5924 624.643 75.361 625.904C76.1436 627.151 76.5349 628.966 76.5349 631.349C76.5349 633.732 76.1436 635.554 75.361 636.815C74.5924 638.075 73.4604 638.706 71.9651 638.706C70.4838 638.706 69.3518 638.075 68.5692 636.815C67.7866 635.554 67.3953 633.732 67.3953 631.349C67.3953 628.98 67.7866 627.165 68.5692 625.904C69.3518 624.643 70.4838 624.013 71.9651 624.013ZM68.8836 631.349C68.8836 633.039 69.0374 634.362 69.3448 635.318L73.9985 626.112C73.5093 625.461 72.8315 625.135 71.9651 625.135C71.0008 625.135 70.2462 625.648 69.7012 626.673C69.1561 627.684 68.8836 629.243 68.8836 631.349ZM71.9651 637.563C72.9433 637.563 73.705 637.057 74.25 636.046C74.795 635.02 75.0675 633.455 75.0675 631.349C75.0675 629.562 74.8928 628.176 74.5435 627.192L69.8898 636.482C70.3929 637.202 71.0847 637.563 71.9651 637.563Z" fill="url(#paint23_linear_175_1901)" fill-opacity="0.6"/>
<path d="M73.2228 661.147H76.3043V662.249H68.3176V661.147H71.8812V649.468L68.4853 651.484L67.8984 650.549L72.0909 647.972H73.2228V661.147Z" fill="url(#paint24_linear_175_1901)" fill-opacity="0.6"/>
<path d="M73.2228 684.899H76.3043V686H68.3176V684.899H71.8812V673.219L68.4853 675.235L67.8984 674.3L72.0909 671.723H73.2228V684.899Z" fill="url(#paint25_linear_175_1901)" fill-opacity="0.6"/>
<path d="M13.5698 410.253C15.0651 410.253 16.1971 410.884 16.9657 412.144C17.7483 413.391 18.1396 415.206 18.1396 417.589C18.1396 419.972 17.7483 421.794 16.9657 423.055C16.1971 424.316 15.0651 424.946 13.5698 424.946C12.0885 424.946 10.9565 424.316 10.1739 423.055C9.3913 421.794 9 419.972 9 417.589C9 415.22 9.3913 413.405 10.1739 412.144C10.9565 410.884 12.0885 410.253 13.5698 410.253ZM10.4883 417.589C10.4883 419.28 10.6421 420.603 10.9495 421.559L15.6032 412.352C15.114 411.701 14.4363 411.375 13.5698 411.375C12.6055 411.375 11.8509 411.888 11.3059 412.913C10.7608 413.925 10.4883 415.483 10.4883 417.589ZM13.5698 423.803C14.5481 423.803 15.3097 423.297 15.8547 422.286C16.3997 421.261 16.6722 419.695 16.6722 417.589C16.6722 415.802 16.4976 414.417 16.1482 413.433L11.4945 422.722C11.9976 423.443 12.6894 423.803 13.5698 423.803Z" fill="url(#paint26_linear_175_1901)" fill-opacity="0.6"/>
<path d="M13.5698 434.004C15.0651 434.004 16.1971 434.635 16.9657 435.895C17.7483 437.142 18.1396 438.957 18.1396 441.34C18.1396 443.723 17.7483 445.545 16.9657 446.806C16.1971 448.067 15.0651 448.697 13.5698 448.697C12.0885 448.697 10.9565 448.067 10.1739 446.806C9.3913 445.545 9 443.723 9 441.34C9 438.971 9.3913 437.156 10.1739 435.895C10.9565 434.635 12.0885 434.004 13.5698 434.004ZM10.4883 441.34C10.4883 443.031 10.6421 444.354 10.9495 445.31L15.6032 436.103C15.114 435.452 14.4363 435.126 13.5698 435.126C12.6055 435.126 11.8509 435.639 11.3059 436.664C10.7608 437.676 10.4883 439.234 10.4883 441.34ZM13.5698 447.554C14.5481 447.554 15.3097 447.049 15.8547 446.037C16.3997 445.012 16.6722 443.446 16.6722 441.34C16.6722 439.553 16.4976 438.168 16.1482 437.184L11.4945 446.474C11.9976 447.194 12.6894 447.554 13.5698 447.554Z" fill="url(#paint27_linear_175_1901)" fill-opacity="0.6"/>
<path d="M14.8276 471.139H17.909V472.24H9.92235V471.139H13.486V459.459L10.09 461.475L9.5031 460.54L13.6956 457.963H14.8276V471.139Z" fill="url(#paint28_linear_175_1901)" fill-opacity="0.6"/>
<path d="M13.5698 481.506C15.0651 481.506 16.1971 482.137 16.9657 483.398C17.7483 484.644 18.1396 486.459 18.1396 488.842C18.1396 491.225 17.7483 493.047 16.9657 494.308C16.1971 495.569 15.0651 496.199 13.5698 496.199C12.0885 496.199 10.9565 495.569 10.1739 494.308C9.3913 493.047 9 491.225 9 488.842C9 486.473 9.3913 484.658 10.1739 483.398C10.9565 482.137 12.0885 481.506 13.5698 481.506ZM10.4883 488.842C10.4883 490.533 10.6421 491.856 10.9495 492.812L15.6032 483.605C15.114 482.954 14.4363 482.629 13.5698 482.629C12.6055 482.629 11.8509 483.141 11.3059 484.166C10.7608 485.178 10.4883 486.737 10.4883 488.842ZM13.5698 495.056C14.5481 495.056 15.3097 494.551 15.8547 493.539C16.3997 492.514 16.6722 490.948 16.6722 488.842C16.6722 487.055 16.4976 485.67 16.1482 484.686L11.4945 493.976C11.9976 494.696 12.6894 495.056 13.5698 495.056Z" fill="url(#paint29_linear_175_1901)" fill-opacity="0.6"/>
<path d="M14.8276 518.641H17.909V519.743H9.92235V518.641H13.486V506.962L10.09 508.977L9.5031 508.042L13.6956 505.465H14.8276V518.641Z" fill="url(#paint30_linear_175_1901)" fill-opacity="0.6"/>
<path d="M14.8276 542.392H17.909V543.494H9.92235V542.392H13.486V530.713L10.09 532.728L9.5031 531.793L13.6956 529.216H14.8276V542.392Z" fill="url(#paint31_linear_175_1901)" fill-opacity="0.6"/>
<path d="M53.7577 376.135H56.8392V377.236H48.8525V376.135H52.4162V364.455L49.0202 366.471L48.4333 365.536L52.6258 362.959H53.7577V376.135Z" fill="url(#paint32_linear_175_1901)" fill-opacity="0.6"/>
<path d="M52.5 386.502C53.9953 386.502 55.1273 387.133 55.8959 388.393C56.6785 389.64 57.0698 391.455 57.0698 393.838C57.0698 396.221 56.6785 398.043 55.8959 399.304C55.1273 400.565 53.9953 401.195 52.5 401.195C51.0187 401.195 49.8867 400.565 49.1041 399.304C48.3215 398.043 47.9302 396.221 47.9302 393.838C47.9302 391.469 48.3215 389.654 49.1041 388.393C49.8867 387.133 51.0187 386.502 52.5 386.502ZM49.4185 393.838C49.4185 395.529 49.5723 396.852 49.8797 397.808L54.5334 388.601C54.0442 387.95 53.3664 387.624 52.5 387.624C51.5357 387.624 50.7811 388.137 50.2361 389.162C49.691 390.174 49.4185 391.732 49.4185 393.838ZM52.5 400.052C53.4782 400.052 54.2399 399.546 54.7849 398.535C55.3299 397.51 55.6024 395.944 55.6024 393.838C55.6024 392.051 55.4277 390.665 55.0784 389.682L50.4247 398.971C50.9278 399.692 51.6196 400.052 52.5 400.052Z" fill="url(#paint33_linear_175_1901)" fill-opacity="0.6"/>
<path d="M53.7577 423.637H56.8392V424.738H48.8525V423.637H52.4162V411.957L49.0202 413.973L48.4333 413.038L52.6258 410.461H53.7577V423.637Z" fill="url(#paint34_linear_175_1901)" fill-opacity="0.6"/>
<path d="M53.7577 447.388H56.8392V448.489H48.8525V447.388H52.4162V435.708L49.0202 437.724L48.4333 436.789L52.6258 434.212H53.7577V447.388Z" fill="url(#paint35_linear_175_1901)" fill-opacity="0.6"/>
<path d="M52.5 457.755C53.9953 457.755 55.1273 458.386 55.8959 459.646C56.6785 460.893 57.0698 462.708 57.0698 465.091C57.0698 467.474 56.6785 469.296 55.8959 470.557C55.1273 471.818 53.9953 472.448 52.5 472.448C51.0187 472.448 49.8867 471.818 49.1041 470.557C48.3215 469.296 47.9302 467.474 47.9302 465.091C47.9302 462.722 48.3215 460.907 49.1041 459.646C49.8867 458.386 51.0187 457.755 52.5 457.755ZM49.4185 465.091C49.4185 466.782 49.5723 468.105 49.8797 469.061L54.5334 459.854C54.0442 459.203 53.3664 458.878 52.5 458.878C51.5357 458.878 50.7811 459.39 50.2361 460.415C49.691 461.427 49.4185 462.985 49.4185 465.091ZM52.5 471.305C53.4782 471.305 54.2399 470.8 54.7849 469.788C55.3299 468.763 55.6024 467.197 55.6024 465.091C55.6024 463.304 55.4277 461.919 55.0784 460.935L50.4247 470.225C50.9278 470.945 51.6196 471.305 52.5 471.305Z" fill="url(#paint36_linear_175_1901)" fill-opacity="0.6"/>
<path d="M53.7577 494.89H56.8392V495.992H48.8525V494.89H52.4162V483.21L49.0202 485.226L48.4333 484.291L52.6258 481.714H53.7577V494.89Z" fill="url(#paint37_linear_175_1901)" fill-opacity="0.6"/>
<path d="M53.7577 518.641H56.8392V519.743H48.8525V518.641H52.4162V506.962L49.0202 508.977L48.4333 508.042L52.6258 505.465H53.7577V518.641Z" fill="url(#paint38_linear_175_1901)" fill-opacity="0.6"/>
<path d="M52.5 529.008C53.9953 529.008 55.1273 529.639 55.8959 530.9C56.6785 532.147 57.0698 533.962 57.0698 536.345C57.0698 538.728 56.6785 540.549 55.8959 541.81C55.1273 543.071 53.9953 543.701 52.5 543.701C51.0187 543.701 49.8867 543.071 49.1041 541.81C48.3215 540.549 47.9302 538.728 47.9302 536.345C47.9302 533.975 48.3215 532.16 49.1041 530.9C49.8867 529.639 51.0187 529.008 52.5 529.008ZM49.4185 536.345C49.4185 538.035 49.5723 539.358 49.8797 540.314L54.5334 531.107C54.0442 530.456 53.3664 530.131 52.5 530.131C51.5357 530.131 50.7811 530.643 50.2361 531.669C49.691 532.68 49.4185 534.239 49.4185 536.345ZM52.5 542.558C53.4782 542.558 54.2399 542.053 54.7849 541.041C55.3299 540.016 55.6024 538.451 55.6024 536.345C55.6024 534.557 55.4277 533.172 55.0784 532.188L50.4247 541.478C50.9278 542.198 51.6196 542.558 52.5 542.558Z" fill="url(#paint39_linear_175_1901)" fill-opacity="0.6"/>
<path d="M53.7577 566.143H56.8392V567.245H48.8525V566.143H52.4162V554.464L49.0202 556.48L48.4333 555.544L52.6258 552.967H53.7577V566.143Z" fill="url(#paint40_linear_175_1901)" fill-opacity="0.6"/>
<path d="M52.5 576.511C53.9953 576.511 55.1273 577.141 55.8959 578.402C56.6785 579.649 57.0698 581.464 57.0698 583.847C57.0698 586.23 56.6785 588.052 55.8959 589.312C55.1273 590.573 53.9953 591.204 52.5 591.204C51.0187 591.204 49.8867 590.573 49.1041 589.312C48.3215 588.052 47.9302 586.23 47.9302 583.847C47.9302 581.478 48.3215 579.663 49.1041 578.402C49.8867 577.141 51.0187 576.511 52.5 576.511ZM49.4185 583.847C49.4185 585.537 49.5723 586.86 49.8797 587.816L54.5334 578.61C54.0442 577.958 53.3664 577.633 52.5 577.633C51.5357 577.633 50.7811 578.145 50.2361 579.171C49.691 580.182 49.4185 581.741 49.4185 583.847ZM52.5 590.061C53.4782 590.061 54.2399 589.555 54.7849 588.543C55.3299 587.518 55.6024 585.953 55.6024 583.847C55.6024 582.059 55.4277 580.674 55.0784 579.69L50.4247 588.98C50.9278 589.7 51.6196 590.061 52.5 590.061Z" fill="url(#paint41_linear_175_1901)" fill-opacity="0.6"/>
<path d="M91.4302 362.751C92.9255 362.751 94.0575 363.381 94.8261 364.642C95.6087 365.889 96 367.704 96 370.087C96 372.47 95.6087 374.292 94.8261 375.553C94.0575 376.814 92.9255 377.444 91.4302 377.444C89.9489 377.444 88.8169 376.814 88.0343 375.553C87.2517 374.292 86.8604 372.47 86.8604 370.087C86.8604 367.718 87.2517 365.903 88.0343 364.642C88.8169 363.381 89.9489 362.751 91.4302 362.751ZM88.3487 370.087C88.3487 371.777 88.5024 373.101 88.8099 374.057L93.4636 364.85C92.9744 364.199 92.2966 363.873 91.4302 363.873C90.4659 363.873 89.7113 364.386 89.1663 365.411C88.6212 366.423 88.3487 367.981 88.3487 370.087ZM91.4302 376.301C92.4084 376.301 93.1701 375.795 93.7151 374.784C94.2601 373.759 94.5326 372.193 94.5326 370.087C94.5326 368.3 94.3579 366.914 94.0086 365.931L89.3549 375.22C89.858 375.941 90.5498 376.301 91.4302 376.301Z" fill="url(#paint42_linear_175_1901)" fill-opacity="0.6"/>
<path d="M92.6879 399.886H95.7694V400.987H87.7827V399.886H91.3463V388.206L87.9504 390.222L87.3635 389.287L91.556 386.71H92.6879V399.886Z" fill="url(#paint43_linear_175_1901)" fill-opacity="0.6"/>
<path d="M92.6879 423.637H95.7694V424.738H87.7827V423.637H91.3463V411.957L87.9504 413.973L87.3635 413.038L91.556 410.461H92.6879V423.637Z" fill="url(#paint44_linear_175_1901)" fill-opacity="0.6"/>
<path d="M91.4302 434.004C92.9255 434.004 94.0575 434.635 94.8261 435.895C95.6087 437.142 96 438.957 96 441.34C96 443.723 95.6087 445.545 94.8261 446.806C94.0575 448.067 92.9255 448.697 91.4302 448.697C89.9489 448.697 88.8169 448.067 88.0343 446.806C87.2517 445.545 86.8604 443.723 86.8604 441.34C86.8604 438.971 87.2517 437.156 88.0343 435.895C88.8169 434.635 89.9489 434.004 91.4302 434.004ZM88.3487 441.34C88.3487 443.031 88.5024 444.354 88.8099 445.31L93.4636 436.103C92.9744 435.452 92.2966 435.126 91.4302 435.126C90.4659 435.126 89.7113 435.639 89.1663 436.664C88.6212 437.676 88.3487 439.234 88.3487 441.34ZM91.4302 447.554C92.4084 447.554 93.1701 447.049 93.7151 446.037C94.2601 445.012 94.5326 443.446 94.5326 441.34C94.5326 439.553 94.3579 438.168 94.0086 437.184L89.3549 446.474C89.858 447.194 90.5498 447.554 91.4302 447.554Z" fill="url(#paint45_linear_175_1901)" fill-opacity="0.6"/>
<path d="M91.4302 457.755C92.9255 457.755 94.0575 458.386 94.8261 459.646C95.6087 460.893 96 462.708 96 465.091C96 467.474 95.6087 469.296 94.8261 470.557C94.0575 471.818 92.9255 472.448 91.4302 472.448C89.9489 472.448 88.8169 471.818 88.0343 470.557C87.2517 469.296 86.8604 467.474 86.8604 465.091C86.8604 462.722 87.2517 460.907 88.0343 459.646C88.8169 458.386 89.9489 457.755 91.4302 457.755ZM88.3487 465.091C88.3487 466.782 88.5024 468.105 88.8099 469.061L93.4636 459.854C92.9744 459.203 92.2966 458.878 91.4302 458.878C90.4659 458.878 89.7113 459.39 89.1663 460.415C88.6212 461.427 88.3487 462.985 88.3487 465.091ZM91.4302 471.305C92.4084 471.305 93.1701 470.8 93.7151 469.788C94.2601 468.763 94.5326 467.197 94.5326 465.091C94.5326 463.304 94.3579 461.919 94.0086 460.935L89.3549 470.225C89.858 470.945 90.5498 471.305 91.4302 471.305Z" fill="url(#paint46_linear_175_1901)" fill-opacity="0.6"/>
<g opacity="0.6">
<path d="M919.93 39C921.356 39 922.436 39.605 923.17 40.8149C923.916 42.0115 924.29 43.7532 924.29 46.0401C924.29 48.327 923.916 50.0754 923.17 51.2853C922.436 52.4952 921.356 53.1002 919.93 53.1002C918.517 53.1002 917.437 52.4952 916.69 51.2853C915.943 50.0754 915.57 48.327 915.57 46.0401C915.57 43.7665 915.943 42.0248 916.69 40.8149C917.437 39.605 918.517 39 919.93 39ZM916.99 46.0401C916.99 47.6622 917.137 48.932 917.43 49.8494L921.87 41.0143C921.403 40.3894 920.756 40.077 919.93 40.077C919.01 40.077 918.29 40.5689 917.77 41.5528C917.25 42.5234 916.99 44.0192 916.99 46.0401ZM919.93 52.0033C920.863 52.0033 921.59 51.518 922.11 50.5474C922.63 49.5635 922.89 48.0611 922.89 46.0401C922.89 44.325 922.723 42.9954 922.39 42.0514L917.95 50.9662C918.43 51.6576 919.09 52.0033 919.93 52.0033Z" fill="url(#paint47_linear_175_1901)"/>
<path d="M921.13 74.6365H924.07V75.6936H916.45V74.6365H919.85V63.4282L916.61 65.3627L916.05 64.4653L920.05 61.9922H921.13V74.6365Z" fill="url(#paint48_linear_175_1901)"/>
<path d="M919.93 84.5856C921.356 84.5856 922.436 85.1906 923.17 86.4005C923.916 87.5971 924.29 89.3389 924.29 91.6257C924.29 93.9126 923.916 95.661 923.17 96.8709C922.436 98.0808 921.356 98.6858 919.93 98.6858C918.517 98.6858 917.437 98.0808 916.69 96.8709C915.943 95.661 915.57 93.9126 915.57 91.6257C915.57 89.3521 915.943 87.6104 916.69 86.4005C917.437 85.1906 918.517 84.5856 919.93 84.5856ZM916.99 91.6257C916.99 93.2478 917.137 94.5176 917.43 95.435L921.87 86.5999C921.403 85.975 920.756 85.6626 919.93 85.6626C919.01 85.6626 918.29 86.1545 917.77 87.1384C917.25 88.109 916.99 89.6048 916.99 91.6257ZM919.93 97.5889C920.863 97.5889 921.59 97.1036 922.11 96.133C922.63 95.1491 922.89 93.6467 922.89 91.6257C922.89 89.9106 922.723 88.581 922.39 87.637L917.95 96.5518C918.43 97.2432 919.09 97.5889 919.93 97.5889Z" fill="url(#paint49_linear_175_1901)"/>
<path d="M921.13 120.222H924.07V121.279H916.45V120.222H919.85V109.014L916.61 110.948L916.05 110.051L920.05 107.578H921.13V120.222Z" fill="url(#paint50_linear_175_1901)"/>
<path d="M921.13 143.015H924.07V144.072H916.45V143.015H919.85V131.807L916.61 133.741L916.05 132.844L920.05 130.371H921.13V143.015Z" fill="url(#paint51_linear_175_1901)"/>
<path d="M919.93 152.964C921.356 152.964 922.436 153.569 923.17 154.779C923.916 155.976 924.29 157.717 924.29 160.004C924.29 162.291 923.916 164.039 923.17 165.249C922.436 166.459 921.356 167.064 919.93 167.064C918.517 167.064 917.437 166.459 916.69 165.249C915.943 164.039 915.57 162.291 915.57 160.004C915.57 157.731 915.943 155.989 916.69 154.779C917.437 153.569 918.517 152.964 919.93 152.964ZM916.99 160.004C916.99 161.626 917.137 162.896 917.43 163.813L921.87 154.978C921.403 154.353 920.756 154.041 919.93 154.041C919.01 154.041 918.29 154.533 917.77 155.517C917.25 156.487 916.99 157.983 916.99 160.004ZM919.93 165.967C920.863 165.967 921.59 165.482 922.11 164.511C922.63 163.528 922.89 162.025 922.89 160.004C922.89 158.289 922.723 156.959 922.39 156.015L917.95 164.93C918.43 165.622 919.09 165.967 919.93 165.967Z" fill="url(#paint52_linear_175_1901)"/>
<path d="M921.13 188.601H924.07V189.658H916.45V188.601H919.85V177.392L916.61 179.327L916.05 178.429L920.05 175.956H921.13V188.601Z" fill="url(#paint53_linear_175_1901)"/>
<path d="M919.93 198.55C921.356 198.55 922.436 199.155 923.17 200.365C923.916 201.561 924.29 203.303 924.29 205.59C924.29 207.877 923.916 209.625 923.17 210.835C922.436 212.045 921.356 212.65 919.93 212.65C918.517 212.65 917.437 212.045 916.69 210.835C915.943 209.625 915.57 207.877 915.57 205.59C915.57 203.316 915.943 201.574 916.69 200.365C917.437 199.155 918.517 198.55 919.93 198.55ZM916.99 205.59C916.99 207.212 917.137 208.482 917.43 209.399L921.87 200.564C921.403 199.939 920.756 199.627 919.93 199.627C919.01 199.627 918.29 200.119 917.77 201.102C917.25 202.073 916.99 203.569 916.99 205.59ZM919.93 211.553C920.863 211.553 921.59 211.068 922.11 210.097C922.63 209.113 922.89 207.611 922.89 205.59C922.89 203.875 922.723 202.545 922.39 201.601L917.95 210.516C918.43 211.207 919.09 211.553 919.93 211.553Z" fill="url(#paint54_linear_175_1901)"/>
<path d="M919.93 221.342C921.356 221.342 922.436 221.947 923.17 223.157C923.916 224.354 924.29 226.096 924.29 228.383C924.29 230.669 923.916 232.418 923.17 233.628C922.436 234.838 921.356 235.443 919.93 235.443C918.517 235.443 917.437 234.838 916.69 233.628C915.943 232.418 915.57 230.669 915.57 228.383C915.57 226.109 915.943 224.367 916.69 223.157C917.437 221.947 918.517 221.342 919.93 221.342ZM916.99 228.383C916.99 230.005 917.137 231.274 917.43 232.192L921.87 223.357C921.403 222.732 920.756 222.419 919.93 222.419C919.01 222.419 918.29 222.911 917.77 223.895C917.25 224.866 916.99 226.362 916.99 228.383ZM919.93 234.346C920.863 234.346 921.59 233.86 922.11 232.89C922.63 231.906 922.89 230.404 922.89 228.383C922.89 226.667 922.723 225.338 922.39 224.394L917.95 233.309C918.43 234 919.09 234.346 919.93 234.346Z" fill="url(#paint55_linear_175_1901)"/>
<path d="M921.13 256.979H924.07V258.036H916.45V256.979H919.85V245.771L916.61 247.705L916.05 246.808L920.05 244.335H921.13V256.979Z" fill="url(#paint56_linear_175_1901)"/>
<path d="M919.93 266.928C921.356 266.928 922.436 267.533 923.17 268.743C923.916 269.94 924.29 271.681 924.29 273.968C924.29 276.255 923.916 278.003 923.17 279.213C922.436 280.423 921.356 281.028 919.93 281.028C918.517 281.028 917.437 280.423 916.69 279.213C915.943 278.003 915.57 276.255 915.57 273.968C915.57 271.695 915.943 269.953 916.69 268.743C917.437 267.533 918.517 266.928 919.93 266.928ZM916.99 273.968C916.99 275.59 917.137 276.86 917.43 277.777L921.87 268.942C921.403 268.317 920.756 268.005 919.93 268.005C919.01 268.005 918.29 268.497 917.77 269.481C917.25 270.451 916.99 271.947 916.99 273.968ZM919.93 279.931C920.863 279.931 921.59 279.446 922.11 278.475C922.63 277.492 922.89 275.989 922.89 273.968C922.89 272.253 922.723 270.923 922.39 269.979L917.95 278.894C918.43 279.586 919.09 279.931 919.93 279.931Z" fill="url(#paint57_linear_175_1901)"/>
<path d="M921.13 302.565H924.07V303.622H916.45V302.565H919.85V291.356L916.61 293.291L916.05 292.393L920.05 289.92H921.13V302.565Z" fill="url(#paint58_linear_175_1901)"/>
<path d="M921.13 325.357H924.07V326.414H916.45V325.357H919.85V314.149L916.61 316.084L916.05 315.186L920.05 312.713H921.13V325.357Z" fill="url(#paint59_linear_175_1901)"/>
<path d="M957.07 84.5856C958.497 84.5856 959.577 85.1906 960.31 86.4005C961.057 87.5971 961.43 89.3389 961.43 91.6257C961.43 93.9126 961.057 95.661 960.31 96.8709C959.577 98.0808 958.497 98.6858 957.07 98.6858C955.657 98.6858 954.577 98.0808 953.83 96.8709C953.084 95.661 952.71 93.9126 952.71 91.6257C952.71 89.3521 953.084 87.6104 953.83 86.4005C954.577 85.1906 955.657 84.5856 957.07 84.5856ZM954.13 91.6257C954.13 93.2478 954.277 94.5176 954.57 95.435L959.01 86.5999C958.543 85.975 957.897 85.6626 957.07 85.6626C956.15 85.6626 955.43 86.1545 954.91 87.1384C954.39 88.109 954.13 89.6048 954.13 91.6257ZM957.07 97.5889C958.003 97.5889 958.73 97.1036 959.25 96.133C959.77 95.1491 960.03 93.6467 960.03 91.6257C960.03 89.9106 959.863 88.581 959.53 87.637L955.09 96.5518C955.57 97.2432 956.23 97.5889 957.07 97.5889Z" fill="url(#paint60_linear_175_1901)"/>
<path d="M958.27 120.222H961.21V121.279H953.59V120.222H956.99V109.014L953.75 110.948L953.19 110.051L957.19 107.578H958.27V120.222Z" fill="url(#paint61_linear_175_1901)"/>
<path d="M957.07 130.171C958.497 130.171 959.577 130.776 960.31 131.986C961.057 133.183 961.43 134.924 961.43 137.211C961.43 139.498 961.057 141.247 960.31 142.457C959.577 143.666 958.497 144.271 957.07 144.271C955.657 144.271 954.577 143.666 953.83 142.457C953.084 141.247 952.71 139.498 952.71 137.211C952.71 134.938 953.084 133.196 953.83 131.986C954.577 130.776 955.657 130.171 957.07 130.171ZM954.13 137.211C954.13 138.833 954.277 140.103 954.57 141.021L959.01 132.186C958.543 131.561 957.897 131.248 957.07 131.248C956.15 131.248 955.43 131.74 954.91 132.724C954.39 133.695 954.13 135.19 954.13 137.211ZM957.07 143.174C958.003 143.174 958.73 142.689 959.25 141.719C959.77 140.735 960.03 139.232 960.03 137.211C960.03 135.496 959.863 134.167 959.53 133.223L955.09 142.137C955.57 142.829 956.23 143.174 957.07 143.174Z" fill="url(#paint62_linear_175_1901)"/>
<path d="M957.07 152.964C958.497 152.964 959.577 153.569 960.31 154.779C961.057 155.976 961.43 157.717 961.43 160.004C961.43 162.291 961.057 164.039 960.31 165.249C959.577 166.459 958.497 167.064 957.07 167.064C955.657 167.064 954.577 166.459 953.83 165.249C953.084 164.039 952.71 162.291 952.71 160.004C952.71 157.731 953.084 155.989 953.83 154.779C954.577 153.569 955.657 152.964 957.07 152.964ZM954.13 160.004C954.13 161.626 954.277 162.896 954.57 163.813L959.01 154.978C958.543 154.353 957.897 154.041 957.07 154.041C956.15 154.041 955.43 154.533 954.91 155.517C954.39 156.487 954.13 157.983 954.13 160.004ZM957.07 165.967C958.003 165.967 958.73 165.482 959.25 164.511C959.77 163.528 960.03 162.025 960.03 160.004C960.03 158.289 959.863 156.959 959.53 156.015L955.09 164.93C955.57 165.622 956.23 165.967 957.07 165.967Z" fill="url(#paint63_linear_175_1901)"/>
<path d="M958.27 188.601H961.21V189.658H953.59V188.601H956.99V177.392L953.75 179.327L953.19 178.429L957.19 175.956H958.27V188.601Z" fill="url(#paint64_linear_175_1901)"/>
<path d="M957.07 198.55C958.497 198.55 959.577 199.155 960.31 200.365C961.057 201.561 961.43 203.303 961.43 205.59C961.43 207.877 961.057 209.625 960.31 210.835C959.577 212.045 958.497 212.65 957.07 212.65C955.657 212.65 954.577 212.045 953.83 210.835C953.084 209.625 952.71 207.877 952.71 205.59C952.71 203.316 953.084 201.574 953.83 200.365C954.577 199.155 955.657 198.55 957.07 198.55ZM954.13 205.59C954.13 207.212 954.277 208.482 954.57 209.399L959.01 200.564C958.543 199.939 957.897 199.627 957.07 199.627C956.15 199.627 955.43 200.119 954.91 201.102C954.39 202.073 954.13 203.569 954.13 205.59ZM957.07 211.553C958.003 211.553 958.73 211.068 959.25 210.097C959.77 209.113 960.03 207.611 960.03 205.59C960.03 203.875 959.863 202.545 959.53 201.601L955.09 210.516C955.57 211.207 956.23 211.553 957.07 211.553Z" fill="url(#paint65_linear_175_1901)"/>
<path d="M958.27 234.186H961.21V235.243H953.59V234.186H956.99V222.978L953.75 224.912L953.19 224.015L957.19 221.542H958.27V234.186Z" fill="url(#paint66_linear_175_1901)"/>
<path d="M957.07 244.135C958.497 244.135 959.577 244.74 960.31 245.95C961.057 247.147 961.43 248.888 961.43 251.175C961.43 253.462 961.057 255.211 960.31 256.421C959.577 257.63 958.497 258.235 957.07 258.235C955.657 258.235 954.577 257.63 953.83 256.421C953.084 255.211 952.71 253.462 952.71 251.175C952.71 248.902 953.084 247.16 953.83 245.95C954.577 244.74 955.657 244.135 957.07 244.135ZM954.13 251.175C954.13 252.797 954.277 254.067 954.57 254.985L959.01 246.15C958.543 245.525 957.897 245.212 957.07 245.212C956.15 245.212 955.43 245.704 954.91 246.688C954.39 247.659 954.13 249.154 954.13 251.175ZM957.07 257.139C958.003 257.139 958.73 256.653 959.25 255.683C959.77 254.699 960.03 253.196 960.03 251.175C960.03 249.46 959.863 248.131 959.53 247.187L955.09 256.101C955.57 256.793 956.23 257.139 957.07 257.139Z" fill="url(#paint67_linear_175_1901)"/>
<path d="M957.07 266.928C958.497 266.928 959.577 267.533 960.31 268.743C961.057 269.94 961.43 271.681 961.43 273.968C961.43 276.255 961.057 278.003 960.31 279.213C959.577 280.423 958.497 281.028 957.07 281.028C955.657 281.028 954.577 280.423 953.83 279.213C953.084 278.003 952.71 276.255 952.71 273.968C952.71 271.695 953.084 269.953 953.83 268.743C954.577 267.533 955.657 266.928 957.07 266.928ZM954.13 273.968C954.13 275.59 954.277 276.86 954.57 277.777L959.01 268.942C958.543 268.317 957.897 268.005 957.07 268.005C956.15 268.005 955.43 268.497 954.91 269.481C954.39 270.451 954.13 271.947 954.13 273.968ZM957.07 279.931C958.003 279.931 958.73 279.446 959.25 278.475C959.77 277.492 960.03 275.989 960.03 273.968C960.03 272.253 959.863 270.923 959.53 269.979L955.09 278.894C955.57 279.586 956.23 279.931 957.07 279.931Z" fill="url(#paint68_linear_175_1901)"/>
<path d="M958.27 302.565H961.21V303.622H953.59V302.565H956.99V291.356L953.75 293.291L953.19 292.393L957.19 289.92H958.27V302.565Z" fill="url(#paint69_linear_175_1901)"/>
<path d="M957.07 312.514C958.497 312.514 959.577 313.119 960.31 314.329C961.057 315.525 961.43 317.267 961.43 319.554C961.43 321.841 961.057 323.589 960.31 324.799C959.577 326.009 958.497 326.614 957.07 326.614C955.657 326.614 954.577 326.009 953.83 324.799C953.084 323.589 952.71 321.841 952.71 319.554C952.71 317.28 953.084 315.538 953.83 314.329C954.577 313.119 955.657 312.514 957.07 312.514ZM954.13 319.554C954.13 321.176 954.277 322.446 954.57 323.363L959.01 314.528C958.543 313.903 957.897 313.591 957.07 313.591C956.15 313.591 955.43 314.083 954.91 315.066C954.39 316.037 954.13 317.533 954.13 319.554ZM957.07 325.517C958.003 325.517 958.73 325.032 959.25 324.061C959.77 323.077 960.03 321.575 960.03 319.554C960.03 317.839 959.863 316.509 959.53 315.565L955.09 324.48C955.57 325.171 956.23 325.517 957.07 325.517Z" fill="url(#paint70_linear_175_1901)"/>
<path d="M958.27 348.15H961.21V349.207H953.59V348.15H956.99V336.942L953.75 338.876L953.19 337.979L957.19 335.506H958.27V348.15Z" fill="url(#paint71_linear_175_1901)"/>
<path d="M958.27 370.943H961.21V372H953.59V370.943H956.99V359.735L953.75 361.669L953.19 360.772L957.19 358.299H958.27V370.943Z" fill="url(#paint72_linear_175_1901)"/>
<path d="M901.36 107.378C902.786 107.378 903.866 107.983 904.599 109.193C905.346 110.39 905.719 112.132 905.719 114.419C905.719 116.705 905.346 118.454 904.599 119.664C903.866 120.874 902.786 121.479 901.36 121.479C899.946 121.479 898.867 120.874 898.12 119.664C897.373 118.454 897 116.705 897 114.419C897 112.145 897.373 110.403 898.12 109.193C898.867 107.983 899.946 107.378 901.36 107.378ZM898.42 114.419C898.42 116.041 898.567 117.31 898.86 118.228L903.3 109.393C902.833 108.768 902.186 108.455 901.36 108.455C900.44 108.455 899.72 108.947 899.2 109.931C898.68 110.902 898.42 112.398 898.42 114.419ZM901.36 120.382C902.293 120.382 903.02 119.896 903.54 118.926C904.06 117.942 904.319 116.439 904.319 114.419C904.319 112.703 904.153 111.374 903.82 110.43L899.38 119.345C899.86 120.036 900.52 120.382 901.36 120.382Z" fill="url(#paint73_linear_175_1901)"/>
<path d="M901.36 130.171C902.786 130.171 903.866 130.776 904.599 131.986C905.346 133.183 905.719 134.924 905.719 137.211C905.719 139.498 905.346 141.247 904.599 142.457C903.866 143.666 902.786 144.271 901.36 144.271C899.946 144.271 898.867 143.666 898.12 142.457C897.373 141.247 897 139.498 897 137.211C897 134.938 897.373 133.196 898.12 131.986C898.867 130.776 899.946 130.171 901.36 130.171ZM898.42 137.211C898.42 138.833 898.567 140.103 898.86 141.021L903.3 132.186C902.833 131.561 902.186 131.248 901.36 131.248C900.44 131.248 899.72 131.74 899.2 132.724C898.68 133.695 898.42 135.19 898.42 137.211ZM901.36 143.174C902.293 143.174 903.02 142.689 903.54 141.719C904.06 140.735 904.319 139.232 904.319 137.211C904.319 135.496 904.153 134.167 903.82 133.223L899.38 142.137C899.86 142.829 900.52 143.174 901.36 143.174Z" fill="url(#paint74_linear_175_1901)"/>
<path d="M902.56 165.808H905.499V166.865H897.88V165.808H901.28V154.599L898.04 156.534L897.48 155.636L901.48 153.163H902.56V165.808Z" fill="url(#paint75_linear_175_1901)"/>
<path d="M901.36 175.757C902.786 175.757 903.866 176.362 904.599 177.572C905.346 178.768 905.719 180.51 905.719 182.797C905.719 185.084 905.346 186.832 904.599 188.042C903.866 189.252 902.786 189.857 901.36 189.857C899.946 189.857 898.867 189.252 898.12 188.042C897.373 186.832 897 185.084 897 182.797C897 180.523 897.373 178.782 898.12 177.572C898.867 176.362 899.946 175.757 901.36 175.757ZM898.42 182.797C898.42 184.419 898.567 185.689 898.86 186.606L903.3 177.771C902.833 177.146 902.186 176.834 901.36 176.834C900.44 176.834 899.72 177.326 899.2 178.31C898.68 179.28 898.42 180.776 898.42 182.797ZM901.36 188.76C902.293 188.76 903.02 188.275 903.54 187.304C904.06 186.32 904.319 184.818 904.319 182.797C904.319 181.082 904.153 179.752 903.82 178.808L899.38 187.723C899.86 188.414 900.52 188.76 901.36 188.76Z" fill="url(#paint76_linear_175_1901)"/>
<path d="M902.56 211.393H905.499V212.45H897.88V211.393H901.28V200.185L898.04 202.12L897.48 201.222L901.48 198.749H902.56V211.393Z" fill="url(#paint77_linear_175_1901)"/>
<path d="M902.56 234.186H905.499V235.243H897.88V234.186H901.28V222.978L898.04 224.912L897.48 224.015L901.48 221.542H902.56V234.186Z" fill="url(#paint78_linear_175_1901)"/>
<path d="M939.7 74.6365H942.64V75.6936H935.02V74.6365H938.42V63.4282L935.18 65.3627L934.62 64.4653L938.62 61.9922H939.7V74.6365Z" fill="url(#paint79_linear_175_1901)"/>
<path d="M938.5 84.5856C939.927 84.5856 941.006 85.1906 941.74 86.4005C942.486 87.5971 942.86 89.3389 942.86 91.6257C942.86 93.9126 942.486 95.661 941.74 96.8709C941.006 98.0808 939.927 98.6858 938.5 98.6858C937.087 98.6858 936.007 98.0808 935.26 96.8709C934.514 95.661 934.14 93.9126 934.14 91.6257C934.14 89.3521 934.514 87.6104 935.26 86.4005C936.007 85.1906 937.087 84.5856 938.5 84.5856ZM935.56 91.6257C935.56 93.2478 935.707 94.5176 936 95.435L940.44 86.5999C939.973 85.975 939.327 85.6626 938.5 85.6626C937.58 85.6626 936.86 86.1545 936.34 87.1384C935.82 88.109 935.56 89.6048 935.56 91.6257ZM938.5 97.5889C939.433 97.5889 940.16 97.1036 940.68 96.133C941.2 95.1491 941.46 93.6467 941.46 91.6257C941.46 89.9106 941.293 88.581 940.96 87.637L936.52 96.5518C937 97.2432 937.66 97.5889 938.5 97.5889Z" fill="url(#paint80_linear_175_1901)"/>
<path d="M939.7 120.222H942.64V121.279H935.02V120.222H938.42V109.014L935.18 110.948L934.62 110.051L938.62 107.578H939.7V120.222Z" fill="url(#paint81_linear_175_1901)"/>
<path d="M939.7 143.015H942.64V144.072H935.02V143.015H938.42V131.807L935.18 133.741L934.62 132.844L938.62 130.371H939.7V143.015Z" fill="url(#paint82_linear_175_1901)"/>
<path d="M938.5 152.964C939.927 152.964 941.006 153.569 941.74 154.779C942.486 155.976 942.86 157.717 942.86 160.004C942.86 162.291 942.486 164.039 941.74 165.249C941.006 166.459 939.927 167.064 938.5 167.064C937.087 167.064 936.007 166.459 935.26 165.249C934.514 164.039 934.14 162.291 934.14 160.004C934.14 157.731 934.514 155.989 935.26 154.779C936.007 153.569 937.087 152.964 938.5 152.964ZM935.56 160.004C935.56 161.626 935.707 162.896 936 163.813L940.44 154.978C939.973 154.353 939.327 154.041 938.5 154.041C937.58 154.041 936.86 154.533 936.34 155.517C935.82 156.487 935.56 157.983 935.56 160.004ZM938.5 165.967C939.433 165.967 940.16 165.482 940.68 164.511C941.2 163.528 941.46 162.025 941.46 160.004C941.46 158.289 941.293 156.959 940.96 156.015L936.52 164.93C937 165.622 937.66 165.967 938.5 165.967Z" fill="url(#paint83_linear_175_1901)"/>
<path d="M939.7 188.601H942.64V189.658H935.02V188.601H938.42V177.392L935.18 179.327L934.62 178.429L938.62 175.956H939.7V188.601Z" fill="url(#paint84_linear_175_1901)"/>
<path d="M939.7 211.393H942.64V212.45H935.02V211.393H938.42V200.185L935.18 202.12L934.62 201.222L938.62 198.749H939.7V211.393Z" fill="url(#paint85_linear_175_1901)"/>
<path d="M938.5 221.342C939.927 221.342 941.006 221.947 941.74 223.157C942.486 224.354 942.86 226.096 942.86 228.383C942.86 230.669 942.486 232.418 941.74 233.628C941.006 234.838 939.927 235.443 938.5 235.443C937.087 235.443 936.007 234.838 935.26 233.628C934.514 232.418 934.14 230.669 934.14 228.383C934.14 226.109 934.514 224.367 935.26 223.157C936.007 221.947 937.087 221.342 938.5 221.342ZM935.56 228.383C935.56 230.005 935.707 231.274 936 232.192L940.44 223.357C939.973 222.732 939.327 222.419 938.5 222.419C937.58 222.419 936.86 222.911 936.34 223.895C935.82 224.866 935.56 226.362 935.56 228.383ZM938.5 234.346C939.433 234.346 940.16 233.86 940.68 232.89C941.2 231.906 941.46 230.404 941.46 228.383C941.46 226.667 941.293 225.338 940.96 224.394L936.52 233.309C937 234 937.66 234.346 938.5 234.346Z" fill="url(#paint86_linear_175_1901)"/>
<path d="M939.7 256.979H942.64V258.036H935.02V256.979H938.42V245.771L935.18 247.705L934.62 246.808L938.62 244.335H939.7V256.979Z" fill="url(#paint87_linear_175_1901)"/>
<path d="M938.5 266.928C939.927 266.928 941.006 267.533 941.74 268.743C942.486 269.94 942.86 271.681 942.86 273.968C942.86 276.255 942.486 278.003 941.74 279.213C941.006 280.423 939.927 281.028 938.5 281.028C937.087 281.028 936.007 280.423 935.26 279.213C934.514 278.003 934.14 276.255 934.14 273.968C934.14 271.695 934.514 269.953 935.26 268.743C936.007 267.533 937.087 266.928 938.5 266.928ZM935.56 273.968C935.56 275.59 935.707 276.86 936 277.777L940.44 268.942C939.973 268.317 939.327 268.005 938.5 268.005C937.58 268.005 936.86 268.497 936.34 269.481C935.82 270.451 935.56 271.947 935.56 273.968ZM938.5 279.931C939.433 279.931 940.16 279.446 940.68 278.475C941.2 277.492 941.46 275.989 941.46 273.968C941.46 272.253 941.293 270.923 940.96 269.979L936.52 278.894C937 279.586 937.66 279.931 938.5 279.931Z" fill="url(#paint88_linear_175_1901)"/>
<path d="M975.64 61.7928C977.067 61.7928 978.147 62.3978 978.88 63.6077C979.627 64.8043 980 66.546 980 68.8329C980 71.1198 979.627 72.8682 978.88 74.0781C978.147 75.288 977.067 75.893 975.64 75.893C974.227 75.893 973.147 75.288 972.401 74.0781C971.654 72.8682 971.281 71.1198 971.281 68.8329C971.281 66.5593 971.654 64.8176 972.401 63.6077C973.147 62.3978 974.227 61.7928 975.64 61.7928ZM972.701 68.8329C972.701 70.455 972.847 71.7248 973.14 72.6422L977.58 63.8071C977.114 63.1822 976.467 62.8698 975.64 62.8698C974.72 62.8698 974 63.3617 973.48 64.3456C972.96 65.3162 972.701 66.812 972.701 68.8329ZM975.64 74.7961C976.574 74.7961 977.3 74.3108 977.82 73.3402C978.34 72.3563 978.6 70.8539 978.6 68.8329C978.6 67.1178 978.433 65.7882 978.1 64.8442L973.66 73.759C974.14 74.4504 974.8 74.7961 975.64 74.7961Z" fill="url(#paint89_linear_175_1901)"/>
<path d="M976.84 97.4293H979.78V98.4864H972.161V97.4293H975.56V86.221L972.321 88.1555L971.761 87.2581L975.76 84.785H976.84V97.4293Z" fill="url(#paint90_linear_175_1901)"/>
<path d="M976.84 120.222H979.78V121.279H972.161V120.222H975.56V109.014L972.321 110.948L971.761 110.051L975.76 107.578H976.84V120.222Z" fill="url(#paint91_linear_175_1901)"/>
<path d="M975.64 130.171C977.067 130.171 978.147 130.776 978.88 131.986C979.627 133.183 980 134.924 980 137.211C980 139.498 979.627 141.247 978.88 142.457C978.147 143.666 977.067 144.271 975.64 144.271C974.227 144.271 973.147 143.666 972.401 142.457C971.654 141.247 971.281 139.498 971.281 137.211C971.281 134.938 971.654 133.196 972.401 131.986C973.147 130.776 974.227 130.171 975.64 130.171ZM972.701 137.211C972.701 138.833 972.847 140.103 973.14 141.021L977.58 132.186C977.114 131.561 976.467 131.248 975.64 131.248C974.72 131.248 974 131.74 973.48 132.724C972.96 133.695 972.701 135.19 972.701 137.211ZM975.64 143.174C976.574 143.174 977.3 142.689 977.82 141.719C978.34 140.735 978.6 139.232 978.6 137.211C978.6 135.496 978.433 134.167 978.1 133.223L973.66 142.137C974.14 142.829 974.8 143.174 975.64 143.174Z" fill="url(#paint92_linear_175_1901)"/>
<path d="M975.64 152.964C977.067 152.964 978.147 153.569 978.88 154.779C979.627 155.976 980 157.717 980 160.004C980 162.291 979.627 164.039 978.88 165.249C978.147 166.459 977.067 167.064 975.64 167.064C974.227 167.064 973.147 166.459 972.401 165.249C971.654 164.039 971.281 162.291 971.281 160.004C971.281 157.731 971.654 155.989 972.401 154.779C973.147 153.569 974.227 152.964 975.64 152.964ZM972.701 160.004C972.701 161.626 972.847 162.896 973.14 163.813L977.58 154.978C977.114 154.353 976.467 154.041 975.64 154.041C974.72 154.041 974 154.533 973.48 155.517C972.96 156.487 972.701 157.983 972.701 160.004ZM975.64 165.967C976.574 165.967 977.3 165.482 977.82 164.511C978.34 163.528 978.6 162.025 978.6 160.004C978.6 158.289 978.433 156.959 978.1 156.015L973.66 164.93C974.14 165.622 974.8 165.967 975.64 165.967Z" fill="url(#paint93_linear_175_1901)"/>
</g>
</g>
<defs>
<filter id="filter0_f_175_1901" x="-558.19" y="-647.19" width="2141.38" height="1500.38" filterUnits="userSpaceOnUse" color-interpolation-filters="sRGB">
<feFlood flood-opacity="0" result="BackgroundImageFix"/>
<feBlend mode="normal" in="SourceGraphic" in2="BackgroundImageFix" result="shape"/>
<feGaussianBlur stdDeviation="200.095" result="effect1_foregroundBlur_175_1901"/>
</filter>
<linearGradient id="paint0_linear_175_1901" x1="52.5" y1="339" x2="52.5" y2="650.381" gradientUnits="userSpaceOnUse">
<stop stop-color="#F7DD43"/>
<stop offset="1" stop-color="#F7DD43" stop-opacity="0"/>
</linearGradient>
<linearGradient id="paint1_linear_175_1901" x1="52.5" y1="339" x2="52.5" y2="650.381" gradientUnits="userSpaceOnUse">
<stop stop-color="#F7DD43"/>
<stop offset="1" stop-color="#F7DD43" stop-opacity="0"/>
</linearGradient>
<linearGradient id="paint2_linear_175_1901" x1="52.5" y1="339" x2="52.5" y2="650.381" gradientUnits="userSpaceOnUse">
<stop stop-color="#F7DD43"/>
<stop offset="1" stop-color="#F7DD43" stop-opacity="0"/>
</linearGradient>
<linearGradient id="paint3_linear_175_1901" x1="52.5" y1="339" x2="52.5" y2="650.381" gradientUnits="userSpaceOnUse">
<stop stop-color="#F7DD43"/>
<stop offset="1" stop-color="#F7DD43" stop-opacity="0"/>
</linearGradient>
<linearGradient id="paint4_linear_175_1901" x1="52.5" y1="339" x2="52.5" y2="650.381" gradientUnits="userSpaceOnUse">
<stop stop-color="#F7DD43"/>
<stop offset="1" stop-color="#F7DD43" stop-opacity="0"/>
</linearGradient>
<linearGradient id="paint5_linear_175_1901" x1="52.5" y1="339" x2="52.5" y2="650.381" gradientUnits="userSpaceOnUse">
<stop stop-color="#F7DD43"/>
<stop offset="1" stop-color="#F7DD43" stop-opacity="0"/>
</linearGradient>
<linearGradient id="paint6_linear_175_1901" x1="52.5" y1="339" x2="52.5" y2="650.381" gradientUnits="userSpaceOnUse">
<stop stop-color="#F7DD43"/>
<stop offset="1" stop-color="#F7DD43" stop-opacity="0"/>
</linearGradient>
<linearGradient id="paint7_linear_175_1901" x1="52.5" y1="339" x2="52.5" y2="650.381" gradientUnits="userSpaceOnUse">
<stop stop-color="#F7DD43"/>
<stop offset="1" stop-color="#F7DD43" stop-opacity="0"/>
</linearGradient>
<linearGradient id="paint8_linear_175_1901" x1="52.5" y1="339" x2="52.5" y2="650.381" gradientUnits="userSpaceOnUse">
<stop stop-color="#F7DD43"/>
<stop offset="1" stop-color="#F7DD43" stop-opacity="0"/>
</linearGradient>
<linearGradient id="paint9_linear_175_1901" x1="52.5" y1="339" x2="52.5" y2="650.381" gradientUnits="userSpaceOnUse">
<stop stop-color="#F7DD43"/>
<stop offset="1" stop-color="#F7DD43" stop-opacity="0"/>
</linearGradient>
<linearGradient id="paint10_linear_175_1901" x1="52.5" y1="339" x2="52.5" y2="650.381" gradientUnits="userSpaceOnUse">
<stop stop-color="#F7DD43"/>
<stop offset="1" stop-color="#F7DD43" stop-opacity="0"/>
</linearGradient>
<linearGradient id="paint11_linear_175_1901" x1="52.5" y1="339" x2="52.5" y2="650.381" gradientUnits="userSpaceOnUse">
<stop stop-color="#F7DD43"/>
<stop offset="1" stop-color="#F7DD43" stop-opacity="0"/>
</linearGradient>
<linearGradient id="paint12_linear_175_1901" x1="52.5" y1="339" x2="52.5" y2="650.381" gradientUnits="userSpaceOnUse">
<stop stop-color="#F7DD43"/>
<stop offset="1" stop-color="#F7DD43" stop-opacity="0"/>
</linearGradient>
<linearGradient id="paint13_linear_175_1901" x1="52.5" y1="339" x2="52.5" y2="650.381" gradientUnits="userSpaceOnUse">
<stop stop-color="#F7DD43"/>
<stop offset="1" stop-color="#F7DD43" stop-opacity="0"/>
</linearGradient>
<linearGradient id="paint14_linear_175_1901" x1="52.5" y1="339" x2="52.5" y2="650.381" gradientUnits="userSpaceOnUse">
<stop stop-color="#F7DD43"/>
<stop offset="1" stop-color="#F7DD43" stop-opacity="0"/>
</linearGradient>
<linearGradient id="paint15_linear_175_1901" x1="52.5" y1="339" x2="52.5" y2="650.381" gradientUnits="userSpaceOnUse">
<stop stop-color="#F7DD43"/>
<stop offset="1" stop-color="#F7DD43" stop-opacity="0"/>
</linearGradient>
<linearGradient id="paint16_linear_175_1901" x1="52.5" y1="339" x2="52.5" y2="650.381" gradientUnits="userSpaceOnUse">
<stop stop-color="#F7DD43"/>
<stop offset="1" stop-color="#F7DD43" stop-opacity="0"/>
</linearGradient>
<linearGradient id="paint17_linear_175_1901" x1="52.5" y1="339" x2="52.5" y2="650.381" gradientUnits="userSpaceOnUse">
<stop stop-color="#F7DD43"/>
<stop offset="1" stop-color="#F7DD43" stop-opacity="0"/>
</linearGradient>
<linearGradient id="paint18_linear_175_1901" x1="52.5" y1="339" x2="52.5" y2="650.381" gradientUnits="userSpaceOnUse">
<stop stop-color="#F7DD43"/>
<stop offset="1" stop-color="#F7DD43" stop-opacity="0"/>
</linearGradient>
<linearGradient id="paint19_linear_175_1901" x1="52.5" y1="339" x2="52.5" y2="650.381" gradientUnits="userSpaceOnUse">
<stop stop-color="#F7DD43"/>
<stop offset="1" stop-color="#F7DD43" stop-opacity="0"/>
</linearGradient>
<linearGradient id="paint20_linear_175_1901" x1="52.5" y1="339" x2="52.5" y2="650.381" gradientUnits="userSpaceOnUse">
<stop stop-color="#F7DD43"/>
<stop offset="1" stop-color="#F7DD43" stop-opacity="0"/>
</linearGradient>
<linearGradient id="paint21_linear_175_1901" x1="52.5" y1="339" x2="52.5" y2="650.381" gradientUnits="userSpaceOnUse">
<stop stop-color="#F7DD43"/>
<stop offset="1" stop-color="#F7DD43" stop-opacity="0"/>
</linearGradient>
<linearGradient id="paint22_linear_175_1901" x1="52.5" y1="339" x2="52.5" y2="650.381" gradientUnits="userSpaceOnUse">
<stop stop-color="#F7DD43"/>
<stop offset="1" stop-color="#F7DD43" stop-opacity="0"/>
</linearGradient>
<linearGradient id="paint23_linear_175_1901" x1="52.5" y1="339" x2="52.5" y2="650.381" gradientUnits="userSpaceOnUse">
<stop stop-color="#F7DD43"/>
<stop offset="1" stop-color="#F7DD43" stop-opacity="0"/>
</linearGradient>
<linearGradient id="paint24_linear_175_1901" x1="52.5" y1="339" x2="52.5" y2="650.381" gradientUnits="userSpaceOnUse">
<stop stop-color="#F7DD43"/>
<stop offset="1" stop-color="#F7DD43" stop-opacity="0"/>
</linearGradient>
<linearGradient id="paint25_linear_175_1901" x1="52.5" y1="339" x2="52.5" y2="650.381" gradientUnits="userSpaceOnUse">
<stop stop-color="#F7DD43"/>
<stop offset="1" stop-color="#F7DD43" stop-opacity="0"/>
</linearGradient>
<linearGradient id="paint26_linear_175_1901" x1="52.5" y1="339" x2="52.5" y2="650.381" gradientUnits="userSpaceOnUse">
<stop stop-color="#F7DD43"/>
<stop offset="1" stop-color="#F7DD43" stop-opacity="0"/>
</linearGradient>
<linearGradient id="paint27_linear_175_1901" x1="52.5" y1="339" x2="52.5" y2="650.381" gradientUnits="userSpaceOnUse">
<stop stop-color="#F7DD43"/>
<stop offset="1" stop-color="#F7DD43" stop-opacity="0"/>
</linearGradient>
<linearGradient id="paint28_linear_175_1901" x1="52.5" y1="339" x2="52.5" y2="650.381" gradientUnits="userSpaceOnUse">
<stop stop-color="#F7DD43"/>
<stop offset="1" stop-color="#F7DD43" stop-opacity="0"/>
</linearGradient>
<linearGradient id="paint29_linear_175_1901" x1="52.5" y1="339" x2="52.5" y2="650.381" gradientUnits="userSpaceOnUse">
<stop stop-color="#F7DD43"/>
<stop offset="1" stop-color="#F7DD43" stop-opacity="0"/>
</linearGradient>
<linearGradient id="paint30_linear_175_1901" x1="52.5" y1="339" x2="52.5" y2="650.381" gradientUnits="userSpaceOnUse">
<stop stop-color="#F7DD43"/>
<stop offset="1" stop-color="#F7DD43" stop-opacity="0"/>
</linearGradient>
<linearGradient id="paint31_linear_175_1901" x1="52.5" y1="339" x2="52.5" y2="650.381" gradientUnits="userSpaceOnUse">
<stop stop-color="#F7DD43"/>
<stop offset="1" stop-color="#F7DD43" stop-opacity="0"/>
</linearGradient>
<linearGradient id="paint32_linear_175_1901" x1="52.5" y1="339" x2="52.5" y2="650.381" gradientUnits="userSpaceOnUse">
<stop stop-color="#F7DD43"/>
<stop offset="1" stop-color="#F7DD43" stop-opacity="0"/>
</linearGradient>
<linearGradient id="paint33_linear_175_1901" x1="52.5" y1="339" x2="52.5" y2="650.381" gradientUnits="userSpaceOnUse">
<stop stop-color="#F7DD43"/>
<stop offset="1" stop-color="#F7DD43" stop-opacity="0"/>
</linearGradient>
<linearGradient id="paint34_linear_175_1901" x1="52.5" y1="339" x2="52.5" y2="650.381" gradientUnits="userSpaceOnUse">
<stop stop-color="#F7DD43"/>
<stop offset="1" stop-color="#F7DD43" stop-opacity="0"/>
</linearGradient>
<linearGradient id="paint35_linear_175_1901" x1="52.5" y1="339" x2="52.5" y2="650.381" gradientUnits="userSpaceOnUse">
<stop stop-color="#F7DD43"/>
<stop offset="1" stop-color="#F7DD43" stop-opacity="0"/>
</linearGradient>
<linearGradient id="paint36_linear_175_1901" x1="52.5" y1="339" x2="52.5" y2="650.381" gradientUnits="userSpaceOnUse">
<stop stop-color="#F7DD43"/>
<stop offset="1" stop-color="#F7DD43" stop-opacity="0"/>
</linearGradient>
<linearGradient id="paint37_linear_175_1901" x1="52.5" y1="339" x2="52.5" y2="650.381" gradientUnits="userSpaceOnUse">
<stop stop-color="#F7DD43"/>
<stop offset="1" stop-color="#F7DD43" stop-opacity="0"/>
</linearGradient>
<linearGradient id="paint38_linear_175_1901" x1="52.5" y1="339" x2="52.5" y2="650.381" gradientUnits="userSpaceOnUse">
<stop stop-color="#F7DD43"/>
<stop offset="1" stop-color="#F7DD43" stop-opacity="0"/>
</linearGradient>
<linearGradient id="paint39_linear_175_1901" x1="52.5" y1="339" x2="52.5" y2="650.381" gradientUnits="userSpaceOnUse">
<stop stop-color="#F7DD43"/>
<stop offset="1" stop-color="#F7DD43" stop-opacity="0"/>
</linearGradient>
<linearGradient id="paint40_linear_175_1901" x1="52.5" y1="339" x2="52.5" y2="650.381" gradientUnits="userSpaceOnUse">
<stop stop-color="#F7DD43"/>
<stop offset="1" stop-color="#F7DD43" stop-opacity="0"/>
</linearGradient>
<linearGradient id="paint41_linear_175_1901" x1="52.5" y1="339" x2="52.5" y2="650.381" gradientUnits="userSpaceOnUse">
<stop stop-color="#F7DD43"/>
<stop offset="1" stop-color="#F7DD43" stop-opacity="0"/>
</linearGradient>
<linearGradient id="paint42_linear_175_1901" x1="52.5" y1="339" x2="52.5" y2="650.381" gradientUnits="userSpaceOnUse">
<stop stop-color="#F7DD43"/>
<stop offset="1" stop-color="#F7DD43" stop-opacity="0"/>
</linearGradient>
<linearGradient id="paint43_linear_175_1901" x1="52.5" y1="339" x2="52.5" y2="650.381" gradientUnits="userSpaceOnUse">
<stop stop-color="#F7DD43"/>
<stop offset="1" stop-color="#F7DD43" stop-opacity="0"/>
</linearGradient>
<linearGradient id="paint44_linear_175_1901" x1="52.5" y1="339" x2="52.5" y2="650.381" gradientUnits="userSpaceOnUse">
<stop stop-color="#F7DD43"/>
<stop offset="1" stop-color="#F7DD43" stop-opacity="0"/>
</linearGradient>
<linearGradient id="paint45_linear_175_1901" x1="52.5" y1="339" x2="52.5" y2="650.381" gradientUnits="userSpaceOnUse">
<stop stop-color="#F7DD43"/>
<stop offset="1" stop-color="#F7DD43" stop-opacity="0"/>
</linearGradient>
<linearGradient id="paint46_linear_175_1901" x1="52.5" y1="339" x2="52.5" y2="650.381" gradientUnits="userSpaceOnUse">
<stop stop-color="#F7DD43"/>
<stop offset="1" stop-color="#F7DD43" stop-opacity="0"/>
</linearGradient>
<linearGradient id="paint47_linear_175_1901" x1="938.5" y1="39" x2="938.5" y2="337.818" gradientUnits="userSpaceOnUse">
<stop stop-color="#F7DD43"/>
<stop offset="1" stop-color="#F7DD43" stop-opacity="0"/>
</linearGradient>
<linearGradient id="paint48_linear_175_1901" x1="938.5" y1="39" x2="938.5" y2="337.818" gradientUnits="userSpaceOnUse">
<stop stop-color="#F7DD43"/>
<stop offset="1" stop-color="#F7DD43" stop-opacity="0"/>
</linearGradient>
<linearGradient id="paint49_linear_175_1901" x1="938.5" y1="39" x2="938.5" y2="337.818" gradientUnits="userSpaceOnUse">
<stop stop-color="#F7DD43"/>
<stop offset="1" stop-color="#F7DD43" stop-opacity="0"/>
</linearGradient>
<linearGradient id="paint50_linear_175_1901" x1="938.5" y1="39" x2="938.5" y2="337.818" gradientUnits="userSpaceOnUse">
<stop stop-color="#F7DD43"/>
<stop offset="1" stop-color="#F7DD43" stop-opacity="0"/>
</linearGradient>
<linearGradient id="paint51_linear_175_1901" x1="938.5" y1="39" x2="938.5" y2="337.818" gradientUnits="userSpaceOnUse">
<stop stop-color="#F7DD43"/>
<stop offset="1" stop-color="#F7DD43" stop-opacity="0"/>
</linearGradient>
<linearGradient id="paint52_linear_175_1901" x1="938.5" y1="39" x2="938.5" y2="337.818" gradientUnits="userSpaceOnUse">
<stop stop-color="#F7DD43"/>
<stop offset="1" stop-color="#F7DD43" stop-opacity="0"/>
</linearGradient>
<linearGradient id="paint53_linear_175_1901" x1="938.5" y1="39" x2="938.5" y2="337.818" gradientUnits="userSpaceOnUse">
<stop stop-color="#F7DD43"/>
<stop offset="1" stop-color="#F7DD43" stop-opacity="0"/>
</linearGradient>
<linearGradient id="paint54_linear_175_1901" x1="938.5" y1="39" x2="938.5" y2="337.818" gradientUnits="userSpaceOnUse">
<stop stop-color="#F7DD43"/>
<stop offset="1" stop-color="#F7DD43" stop-opacity="0"/>
</linearGradient>
<linearGradient id="paint55_linear_175_1901" x1="938.5" y1="39" x2="938.5" y2="337.818" gradientUnits="userSpaceOnUse">
<stop stop-color="#F7DD43"/>
<stop offset="1" stop-color="#F7DD43" stop-opacity="0"/>
</linearGradient>
<linearGradient id="paint56_linear_175_1901" x1="938.5" y1="39" x2="938.5" y2="337.818" gradientUnits="userSpaceOnUse">
<stop stop-color="#F7DD43"/>
<stop offset="1" stop-color="#F7DD43" stop-opacity="0"/>
</linearGradient>
<linearGradient id="paint57_linear_175_1901" x1="938.5" y1="39" x2="938.5" y2="337.818" gradientUnits="userSpaceOnUse">
<stop stop-color="#F7DD43"/>
<stop offset="1" stop-color="#F7DD43" stop-opacity="0"/>
</linearGradient>
<linearGradient id="paint58_linear_175_1901" x1="938.5" y1="39" x2="938.5" y2="337.818" gradientUnits="userSpaceOnUse">
<stop stop-color="#F7DD43"/>
<stop offset="1" stop-color="#F7DD43" stop-opacity="0"/>
</linearGradient>
<linearGradient id="paint59_linear_175_1901" x1="938.5" y1="39" x2="938.5" y2="337.818" gradientUnits="userSpaceOnUse">
<stop stop-color="#F7DD43"/>
<stop offset="1" stop-color="#F7DD43" stop-opacity="0"/>
</linearGradient>
<linearGradient id="paint60_linear_175_1901" x1="938.5" y1="39" x2="938.5" y2="337.818" gradientUnits="userSpaceOnUse">
<stop stop-color="#F7DD43"/>
<stop offset="1" stop-color="#F7DD43" stop-opacity="0"/>
</linearGradient>
<linearGradient id="paint61_linear_175_1901" x1="938.5" y1="39" x2="938.5" y2="337.818" gradientUnits="userSpaceOnUse">
<stop stop-color="#F7DD43"/>
<stop offset="1" stop-color="#F7DD43" stop-opacity="0"/>
</linearGradient>
<linearGradient id="paint62_linear_175_1901" x1="938.5" y1="39" x2="938.5" y2="337.818" gradientUnits="userSpaceOnUse">
<stop stop-color="#F7DD43"/>
<stop offset="1" stop-color="#F7DD43" stop-opacity="0"/>
</linearGradient>
<linearGradient id="paint63_linear_175_1901" x1="938.5" y1="39" x2="938.5" y2="337.818" gradientUnits="userSpaceOnUse">
<stop stop-color="#F7DD43"/>
<stop offset="1" stop-color="#F7DD43" stop-opacity="0"/>
</linearGradient>
<linearGradient id="paint64_linear_175_1901" x1="938.5" y1="39" x2="938.5" y2="337.818" gradientUnits="userSpaceOnUse">
<stop stop-color="#F7DD43"/>
<stop offset="1" stop-color="#F7DD43" stop-opacity="0"/>
</linearGradient>
<linearGradient id="paint65_linear_175_1901" x1="938.5" y1="39" x2="938.5" y2="337.818" gradientUnits="userSpaceOnUse">
<stop stop-color="#F7DD43"/>
<stop offset="1" stop-color="#F7DD43" stop-opacity="0"/>
</linearGradient>
<linearGradient id="paint66_linear_175_1901" x1="938.5" y1="39" x2="938.5" y2="337.818" gradientUnits="userSpaceOnUse">
<stop stop-color="#F7DD43"/>
<stop offset="1" stop-color="#F7DD43" stop-opacity="0"/>
</linearGradient>
<linearGradient id="paint67_linear_175_1901" x1="938.5" y1="39" x2="938.5" y2="337.818" gradientUnits="userSpaceOnUse">
<stop stop-color="#F7DD43"/>
<stop offset="1" stop-color="#F7DD43" stop-opacity="0"/>
</linearGradient>
<linearGradient id="paint68_linear_175_1901" x1="938.5" y1="39" x2="938.5" y2="337.818" gradientUnits="userSpaceOnUse">
<stop stop-color="#F7DD43"/>
<stop offset="1" stop-color="#F7DD43" stop-opacity="0"/>
</linearGradient>
<linearGradient id="paint69_linear_175_1901" x1="938.5" y1="39" x2="938.5" y2="337.818" gradientUnits="userSpaceOnUse">
<stop stop-color="#F7DD43"/>
<stop offset="1" stop-color="#F7DD43" stop-opacity="0"/>
</linearGradient>
<linearGradient id="paint70_linear_175_1901" x1="938.5" y1="39" x2="938.5" y2="337.818" gradientUnits="userSpaceOnUse">
<stop stop-color="#F7DD43"/>
<stop offset="1" stop-color="#F7DD43" stop-opacity="0"/>
</linearGradient>
<linearGradient id="paint71_linear_175_1901" x1="938.5" y1="39" x2="938.5" y2="337.818" gradientUnits="userSpaceOnUse">
<stop stop-color="#F7DD43"/>
<stop offset="1" stop-color="#F7DD43" stop-opacity="0"/>
</linearGradient>
<linearGradient id="paint72_linear_175_1901" x1="938.5" y1="39" x2="938.5" y2="337.818" gradientUnits="userSpaceOnUse">
<stop stop-color="#F7DD43"/>
<stop offset="1" stop-color="#F7DD43" stop-opacity="0"/>
</linearGradient>
<linearGradient id="paint73_linear_175_1901" x1="938.5" y1="39" x2="938.5" y2="337.818" gradientUnits="userSpaceOnUse">
<stop stop-color="#F7DD43"/>
<stop offset="1" stop-color="#F7DD43" stop-opacity="0"/>
</linearGradient>
<linearGradient id="paint74_linear_175_1901" x1="938.5" y1="39" x2="938.5" y2="337.818" gradientUnits="userSpaceOnUse">
<stop stop-color="#F7DD43"/>
<stop offset="1" stop-color="#F7DD43" stop-opacity="0"/>
</linearGradient>
<linearGradient id="paint75_linear_175_1901" x1="938.5" y1="39" x2="938.5" y2="337.818" gradientUnits="userSpaceOnUse">
<stop stop-color="#F7DD43"/>
<stop offset="1" stop-color="#F7DD43" stop-opacity="0"/>
</linearGradient>
<linearGradient id="paint76_linear_175_1901" x1="938.5" y1="39" x2="938.5" y2="337.818" gradientUnits="userSpaceOnUse">
<stop stop-color="#F7DD43"/>
<stop offset="1" stop-color="#F7DD43" stop-opacity="0"/>
</linearGradient>
<linearGradient id="paint77_linear_175_1901" x1="938.5" y1="39" x2="938.5" y2="337.818" gradientUnits="userSpaceOnUse">
<stop stop-color="#F7DD43"/>
<stop offset="1" stop-color="#F7DD43" stop-opacity="0"/>
</linearGradient>
<linearGradient id="paint78_linear_175_1901" x1="938.5" y1="39" x2="938.5" y2="337.818" gradientUnits="userSpaceOnUse">
<stop stop-color="#F7DD43"/>
<stop offset="1" stop-color="#F7DD43" stop-opacity="0"/>
</linearGradient>
<linearGradient id="paint79_linear_175_1901" x1="938.5" y1="39" x2="938.5" y2="337.818" gradientUnits="userSpaceOnUse">
<stop stop-color="#F7DD43"/>
<stop offset="1" stop-color="#F7DD43" stop-opacity="0"/>
</linearGradient>
<linearGradient id="paint80_linear_175_1901" x1="938.5" y1="39" x2="938.5" y2="337.818" gradientUnits="userSpaceOnUse">
<stop stop-color="#F7DD43"/>
<stop offset="1" stop-color="#F7DD43" stop-opacity="0"/>
</linearGradient>
<linearGradient id="paint81_linear_175_1901" x1="938.5" y1="39" x2="938.5" y2="337.818" gradientUnits="userSpaceOnUse">
<stop stop-color="#F7DD43"/>
<stop offset="1" stop-color="#F7DD43" stop-opacity="0"/>
</linearGradient>
<linearGradient id="paint82_linear_175_1901" x1="938.5" y1="39" x2="938.5" y2="337.818" gradientUnits="userSpaceOnUse">
<stop stop-color="#F7DD43"/>
<stop offset="1" stop-color="#F7DD43" stop-opacity="0"/>
</linearGradient>
<linearGradient id="paint83_linear_175_1901" x1="938.5" y1="39" x2="938.5" y2="337.818" gradientUnits="userSpaceOnUse">
<stop stop-color="#F7DD43"/>
<stop offset="1" stop-color="#F7DD43" stop-opacity="0"/>
</linearGradient>
<linearGradient id="paint84_linear_175_1901" x1="938.5" y1="39" x2="938.5" y2="337.818" gradientUnits="userSpaceOnUse">
<stop stop-color="#F7DD43"/>
<stop offset="1" stop-color="#F7DD43" stop-opacity="0"/>
</linearGradient>
<linearGradient id="paint85_linear_175_1901" x1="938.5" y1="39" x2="938.5" y2="337.818" gradientUnits="userSpaceOnUse">
<stop stop-color="#F7DD43"/>
<stop offset="1" stop-color="#F7DD43" stop-opacity="0"/>
</linearGradient>
<linearGradient id="paint86_linear_175_1901" x1="938.5" y1="39" x2="938.5" y2="337.818" gradientUnits="userSpaceOnUse">
<stop stop-color="#F7DD43"/>
<stop offset="1" stop-color="#F7DD43" stop-opacity="0"/>
</linearGradient>
<linearGradient id="paint87_linear_175_1901" x1="938.5" y1="39" x2="938.5" y2="337.818" gradientUnits="userSpaceOnUse">
<stop stop-color="#F7DD43"/>
<stop offset="1" stop-color="#F7DD43" stop-opacity="0"/>
</linearGradient>
<linearGradient id="paint88_linear_175_1901" x1="938.5" y1="39" x2="938.5" y2="337.818" gradientUnits="userSpaceOnUse">
<stop stop-color="#F7DD43"/>
<stop offset="1" stop-color="#F7DD43" stop-opacity="0"/>
</linearGradient>
<linearGradient id="paint89_linear_175_1901" x1="938.5" y1="39" x2="938.5" y2="337.818" gradientUnits="userSpaceOnUse">
<stop stop-color="#F7DD43"/>
<stop offset="1" stop-color="#F7DD43" stop-opacity="0"/>
</linearGradient>
<linearGradient id="paint90_linear_175_1901" x1="938.5" y1="39" x2="938.5" y2="337.818" gradientUnits="userSpaceOnUse">
<stop stop-color="#F7DD43"/>
<stop offset="1" stop-color="#F7DD43" stop-opacity="0"/>
</linearGradient>
<linearGradient id="paint91_linear_175_1901" x1="938.5" y1="39" x2="938.5" y2="337.818" gradientUnits="userSpaceOnUse">
<stop stop-color="#F7DD43"/>
<stop offset="1" stop-color="#F7DD43" stop-opacity="0"/>
</linearGradient>
<linearGradient id="paint92_linear_175_1901" x1="938.5" y1="39" x2="938.5" y2="337.818" gradientUnits="userSpaceOnUse">
<stop stop-color="#F7DD43"/>
<stop offset="1" stop-color="#F7DD43" stop-opacity="0"/>
</linearGradient>
<linearGradient id="paint93_linear_175_1901" x1="938.5" y1="39" x2="938.5" y2="337.818" gradientUnits="userSpaceOnUse">
<stop stop-color="#F7DD43"/>
<stop offset="1" stop-color="#F7DD43" stop-opacity="0"/>
</linearGradient>
<clipPath id="clip0_175_1901">
<rect width="1024" height="753" fill="white"/>
</clipPath>
</defs>
</svg>
